<svg xmlns="http://www.w3.org/2000/svg" viewBox="0 0 421.66 221.51"><defs><style>.cls-1{fill:#008a7e;}</style></defs><g id="Layer_2" data-name="Layer 2"><g id="Layer_1-2" data-name="Layer 1"><path class="cls-1" d="M210.1,99l-14.47,15c-2.93,3,1.7,7.67,4.63,4.63l14.47-15c2.92-3-1.7-7.67-4.63-4.63Z"/><path class="cls-1" d="M194.47,101.6a91.39,91.39,0,0,1,13.22,19.21c1.94,3.74,7.59.44,5.65-3.31A98.25,98.25,0,0,0,199.09,97c-2.81-3.14-7.43,1.5-4.62,4.63Z"/><path class="cls-1" d="M53.5,126.56a56.76,56.76,0,0,1,48.3-7.19c3.2,1,8.57,2.61,10.11,6,2.31,5.1-7.5,7.2-10.69,8.39-7.87,2.92-15.86,5.64-23.53,9.06-12.43,5.54-24.57,14.55-26.45,29-1.76,13.5,5.58,27,16.16,35,12.83,9.71,30.06,11.5,45.64,10.45,15-1,31.44-4,41.23-16.56,4.83-6.21,7.67-13.63,10-21.07a221.67,221.67,0,0,0,7-28.52,232.68,232.68,0,0,0,3.16-27.22c.47-8.42,1.7-18.65-.36-26.92-1.49-6-8-9.62-12.47-3.94-5.65,7.2-1,17.87-5,25.66-2.35,4.48-7.54,6.81-10.75,1.86-2.09-3.23-2.34-7.58-1.94-11.28.9-8.32,3.44-16.48-1.28-24.16a3.3,3.3,0,0,0-5.65,0c-5,8.9-2.7,18.28-3.18,27.93-.41,8.25-7.74,21.45-16.59,11.63-3.94-4.37-3.92-10.71-3.41-16.21.24-2.65.3-5.9,1.59-8.27s3.56-3.54,4.82-5.84c2.39-4.41,3-10.07,4.1-14.9l4.5-19q4.17-17.56,8.33-35.13c2-8.24,3.65-17.6-5.32-22.24-7.21-3.73-19-3.78-26.64-1.67C97.13,3.61,91.36,9.84,88,17.21c-4.36,9.52-5.37,20.26-5.62,30.6a145.5,145.5,0,0,0,4.89,40.54l6-2.52c-8-16.36-15.17-33.73-24.81-49.22C60.73,24.26,48.5,12.68,33,12.75c-12.53.05-25.16,9.77-25,23,.15,14.39,13.55,23.73,22,33.69a78.33,78.33,0,0,1,18.1,51.87c-.08,4.22,6.47,4.22,6.55,0a85.79,85.79,0,0,0-8.46-38.77C40.36,70.46,31.38,61.9,22.67,52c-4.16-4.71-8.34-10.42-8.13-17,.23-7.28,6.31-12.94,13-14.93,14.84-4.44,28.13,8.35,35.26,19.81C72.4,55.4,79.54,72.77,87.57,89.13c1.67,3.39,6.91,1,6-2.52a139.37,139.37,0,0,1-4.69-35.94c0-10,.61-20.85,4.76-30.16C98.05,10.57,105.72,6.62,116.44,7c4.31.13,10.71-.15,14.08,3.06,4.15,4,.46,12.71-.64,17.35q-4.17,17.56-8.33,35.13-1.92,8.07-3.83,16.14c-.67,2.84-1.28,5.72-2,8.54-.87,3.29-2.22,5-4.44,7.33-2.7,2.89-3.13,6.54-3.62,10.32-.65,5.05-1.09,10.21.09,15.23,1.77,7.48,8,14.46,16.07,14.52s13.43-7.25,15.41-14.42c2.86-10.38-2-22.06,3.39-31.76h-5.65c4.38,7.11.38,15.37.22,23-.11,5.34,1.33,11.43,5.26,15.29a11.52,11.52,0,0,0,14.8,1.09c5.27-3.67,7.16-10.09,7.63-16.18.27-3.53-.83-10.08,1.18-13,2.19-3.23,1.95,2.08,2,3.51.14,2.52.17,5.06.19,7.58a226.48,226.48,0,0,1-1.48,27.43A218.58,218.58,0,0,1,161.38,166c-2.12,8.32-4.4,17-8.41,24.63-8.55,16.28-26.29,19.55-43.21,20.22-15.65.62-33.23-2.05-44-14.54-10.46-12.1-11.18-29.16,1.57-39.82C79.64,146.2,96.67,143.39,111,137c5.91-2.63,10.31-8.55,6.58-14.94s-12.52-9-19.31-10.39a63.41,63.41,0,0,0-48.06,9.23c-3.51,2.32-.23,8,3.28,5.65Z"/><path d="M45.5,130.56a56.76,56.76,0,0,1,48.3-7.19c3.2,1,8.57,2.61,10.11,6,2.31,5.1-7.5,7.2-10.69,8.39-7.87,2.92-15.86,5.64-23.53,9.06-12.43,5.54-24.57,14.55-26.45,29-1.76,13.5,5.58,27,16.16,35,12.83,9.71,30.06,11.5,45.64,10.45,15-1,31.44-4,41.23-16.56,4.83-6.21,7.67-13.63,10-21.07a221.67,221.67,0,0,0,7-28.52,232.68,232.68,0,0,0,3.16-27.22c.47-8.42,1.7-18.65-.36-26.92-1.49-6-8-9.62-12.47-3.94-5.65,7.2-1,17.87-5,25.66-2.35,4.48-7.54,6.81-10.75,1.86-2.09-3.23-2.34-7.58-1.94-11.28.9-8.32,3.44-16.48-1.28-24.16a3.3,3.3,0,0,0-5.65,0c-5,8.9-2.7,18.28-3.18,27.93-.41,8.25-7.74,21.45-16.59,11.63-3.94-4.37-3.92-10.71-3.41-16.21.24-2.65.3-5.9,1.59-8.27s3.56-3.54,4.82-5.84c2.39-4.41,3-10.07,4.1-14.9l4.5-19q4.17-17.56,8.33-35.13c2-8.24,3.65-17.6-5.32-22.24-7.21-3.73-19-3.78-26.64-1.67-8,2.21-13.78,8.44-17.16,15.81-4.36,9.52-5.37,20.26-5.62,30.6a145.5,145.5,0,0,0,4.89,40.54l6-2.52c-8-16.36-15.17-33.73-24.81-49.22C52.73,28.26,40.5,16.68,25,16.75c-12.53.05-25.16,9.77-25,23C.15,54.12,13.55,63.46,22,73.42a78.33,78.33,0,0,1,18.1,51.87c-.08,4.22,6.47,4.22,6.55,0a85.79,85.79,0,0,0-8.46-38.77C32.36,74.46,23.38,65.9,14.67,56c-4.16-4.71-8.34-10.42-8.13-17,.23-7.28,6.31-12.94,13-14.93,14.84-4.44,28.13,8.35,35.26,19.81C64.4,59.4,71.54,76.77,79.57,93.13c1.67,3.39,6.91,1,6-2.52a139.37,139.37,0,0,1-4.69-35.94c0-10,.61-20.85,4.76-30.16,4.43-9.94,12.1-13.89,22.82-13.56,4.31.13,10.71-.15,14.08,3.06,4.15,4,.46,12.71-.64,17.35q-4.17,17.56-8.33,35.13-1.92,8.07-3.83,16.14c-.67,2.84-1.28,5.72-2,8.54-.87,3.29-2.22,5-4.44,7.33-2.7,2.89-3.13,6.54-3.62,10.32-.65,5.05-1.09,10.21.09,15.23,1.77,7.48,8,14.46,16.07,14.52s13.43-7.25,15.41-14.42c2.86-10.38-2-22.06,3.39-31.76h-5.65c4.38,7.11.38,15.37.22,23-.11,5.34,1.33,11.43,5.26,15.29a11.52,11.52,0,0,0,14.8,1.09c5.27-3.67,7.16-10.09,7.63-16.18.27-3.53-.83-10.08,1.18-13,2.19-3.23,1.95,2.08,2,3.51.14,2.52.17,5.06.19,7.58a226.48,226.48,0,0,1-1.48,27.43A218.58,218.58,0,0,1,153.38,170c-2.12,8.32-4.4,17-8.41,24.63-8.55,16.28-26.29,19.55-43.21,20.22-15.65.62-33.23-2.05-44-14.54-10.46-12.1-11.18-29.16,1.57-39.82C71.64,150.2,88.67,147.39,103,141c5.91-2.63,10.31-8.55,6.58-14.94s-12.52-9-19.31-10.39a63.41,63.41,0,0,0-48.06,9.23c-3.51,2.32-.23,8,3.28,5.65Z"/><path class="cls-1" d="M322.87,191.78c-19.76-9.39-35.81-24.3-49.82-40.87-14.44-17.08-29-36-36.19-57.47-7-20.91-6.46-46,9.73-62.64,14.86-15.25,36.36-16.06,53.28-3.62,21,15.46,26.9,42.58,31.41,66.76.68,3.62,6.63,2.8,6.43-.87-1-19.6,3.33-46.43,20.33-59,15.17-11.2,37.21-3.74,47.45,10.62,11.85,16.62,11.47,38.91,5.87,57.74-5.88,19.74-17.8,37.3-32.52,51.54-17.15,16.59-37.95,28.75-59.46,38.77-3.82,1.78-.49,7.43,3.31,5.65,42-19.59,83.51-50.28,95.87-97.37,5.36-20.42,4.57-44.28-8.85-61.56-11.41-14.68-33.1-22.3-50.44-13.8-22.94,11.25-29.31,44.5-28.1,67.39l6.43-.87c-4.43-23.71-10.26-49.43-29-66.27-15.87-14.27-38.33-19.29-57.11-7.49C231.84,30.79,224,54.22,226.45,76.59c2.86,25.58,17.25,47.46,32.64,67.35,16.58,21.43,35.67,41.71,60.49,53.49,3.77,1.81,7.1-3.84,3.29-5.65Z"/><path d="M314.87,195.78c-19.76-9.39-35.81-24.3-49.82-40.87-14.44-17.08-29-36-36.19-57.47-7-20.91-6.46-46,9.73-62.64,14.86-15.25,36.36-16.06,53.28-3.62,21,15.46,26.9,42.58,31.41,66.76.68,3.62,6.63,2.8,6.43-.87-1-19.6,3.33-46.43,20.33-59,15.17-11.2,37.21-3.74,47.45,10.62,11.85,16.62,11.47,38.91,5.87,57.74-5.88,19.74-17.8,37.3-32.52,51.54-17.15,16.59-37.95,28.75-59.46,38.77-3.82,1.78-.49,7.43,3.31,5.65,42-19.59,83.51-50.28,95.87-97.37,5.36-20.42,4.57-44.28-8.85-61.56-11.41-14.68-33.1-22.3-50.44-13.8-22.94,11.25-29.31,44.5-28.1,67.39l6.43-.87c-4.43-23.71-10.26-49.43-29-66.27-15.87-14.27-38.33-19.29-57.11-7.49C223.84,34.79,216,58.22,218.45,80.59c2.86,25.58,17.25,47.46,32.64,67.35,16.58,21.43,35.67,41.71,60.49,53.49,3.77,1.81,7.1-3.84,3.29-5.65Z"/><path d="M205.1,99l-14.47,15c-2.93,3,1.7,7.67,4.63,4.63l14.47-15c2.92-3-1.7-7.67-4.63-4.63Z"/><path d="M190.47,102.6a91.39,91.39,0,0,1,13.22,19.21c1.94,3.74,7.59.44,5.65-3.31A98.25,98.25,0,0,0,195.09,98c-2.81-3.14-7.43,1.5-4.62,4.63Z"/></g></g></svg>